<svg width="54" height="55" viewBox="0 0 54 55" fill="none" xmlns="http://www.w3.org/2000/svg">
<rect y="0.5" width="54" height="54" rx="4" fill="black"/>
<path d="M29.0254 24.4785C28.2584 24.4785 27.6641 25.0729 27.6641 25.8066C27.6641 26.5404 28.2584 27.1348 29.0254 27.1348C29.726 27.1348 30.3203 26.5404 30.3203 25.8066C30.3203 25.0729 29.726 24.4785 29.0254 24.4785ZM19.7285 24.4785C18.9615 24.4785 18.3672 25.0729 18.3672 25.8066C18.3672 26.5404 18.9615 27.1348 19.7285 27.1348C20.4291 27.1348 21.0234 26.5404 21.0234 25.8066C21.0234 25.0729 20.4291 24.4785 19.7285 24.4785Z" fill="white"/>
<path d="M39.6831 21.9551C38.0861 19.7637 35.8548 18.2994 33.4078 17.6387V17.642C32.84 17.0112 32.1992 16.4301 31.482 15.9121C26.0466 11.961 18.4165 13.1662 14.4488 18.6016C11.2513 23.0176 11.3874 28.9576 14.648 33.1778L14.6746 37.5805C14.6746 37.6867 14.6912 37.793 14.7244 37.8926C14.9003 38.4537 15.498 38.7625 16.0558 38.5865L20.2593 37.2617C21.3716 37.6569 22.5205 37.8826 23.6626 37.9457L23.646 37.959C26.6044 40.1139 30.4826 40.7613 34.0386 39.586L38.2587 40.9606C38.365 40.9938 38.4746 41.0137 38.5874 41.0137C39.1751 41.0137 39.6499 40.5389 39.6499 39.9512V35.502C42.5751 31.5309 42.6515 26.0424 39.6831 21.9551ZM20.7242 34.9043L20.3257 34.7383L17.0386 35.7676L17.0054 32.3145L16.7398 32.0156C13.9308 28.5891 13.7449 23.6518 16.3746 20.0293C19.5753 15.6399 25.7113 14.6703 30.0874 17.8379C34.4769 21.0287 35.4498 27.1547 32.2789 31.5176C29.6193 35.1666 24.858 36.5147 20.7242 34.9043ZM37.4917 34.3399L37.2261 34.6719L37.2593 38.125L34.0054 37.0293L33.607 37.1953C31.7476 37.886 29.7654 37.9424 27.9292 37.4278L27.9226 37.4244C30.3763 36.6707 32.6009 35.1434 34.2046 32.9453C36.7414 29.449 37.1531 25.0563 35.6789 21.311L35.6988 21.3242C36.4624 21.8721 37.163 22.5561 37.7574 23.3828C40.1679 26.6899 40.0318 31.1922 37.4917 34.3399Z" fill="white"/>
<path d="M24.377 24.4785C23.61 24.4785 23.0156 25.0729 23.0156 25.8066C23.0156 26.5404 23.61 27.1348 24.377 27.1348C25.0775 27.1348 25.6719 26.5404 25.6719 25.8066C25.6719 25.0729 25.0775 24.4785 24.377 24.4785Z" fill="white"/>
</svg>
